<svg id="Flat" height="512" viewBox="0 0 512 512" width="512" xmlns="http://www.w3.org/2000/svg"><circle cx="256" cy="256" fill="#ffd754" r="232"/><circle cx="256" cy="256" fill="#edb90c" r="184"/><path d="m248 152v16h-32a8 8 0 0 0 -8 8v160a8 8 0 0 0 8 8h32v16a8 8 0 0 0 16 0v-16h8a47.983 47.983 0 0 0 26.493-88 47.983 47.983 0 0 0 -26.493-88h-8v-16a8 8 0 0 0 -16 0zm-24 32h24v64h-24zm0 144v-64h24v64zm80-32a32.036 32.036 0 0 1 -32 32h-8v-64h8a32.036 32.036 0 0 1 32 32zm-32-112a32 32 0 0 1 0 64h-8v-64z" fill="#fbe36a"/><g fill="#fbefb2"><path d="m74.782 232a8 8 0 0 1 -7.889-9.383 192.259 192.259 0 0 1 155.725-155.724 8 8 0 1 1 2.764 15.76 176.214 176.214 0 0 0 -142.73 142.729 8 8 0 0 1 -7.87 6.618z"/><path d="m287.99 445.229a8 8 0 0 1 -1.372-15.882 176.214 176.214 0 0 0 142.73-142.729 8 8 0 1 1 15.759 2.764 192.259 192.259 0 0 1 -155.725 155.725 8.051 8.051 0 0 1 -1.392.122z"/><circle cx="72" cy="256" r="8"/><circle cx="256" cy="72" r="8"/><circle cx="440" cy="256" r="8"/><circle cx="256" cy="440" r="8"/></g></svg>