<svg height="512pt" viewBox="0 0 512 512" width="512pt" xmlns="http://www.w3.org/2000/svg"><path d="m512 256c0 141.386719-114.613281 256-256 256s-256-114.613281-256-256 114.613281-256 256-256 256 114.613281 256 256zm0 0" fill="#fd3019"/><path d="m512 256c0-1.800781-.03125-3.597656-.066406-5.390625l-149.027344-149.023437-226.457031 305.035156 104.957031 104.957031c4.832031.269531 9.695312.421875 14.59375.421875 141.386719 0 256-114.613281 256-256zm0 0" fill="#e71e15"/><path d="m337.613281 175.375h-103.085937l-25.292969-73.789062 23.785156-12.464844c13.027344-6.824219 28.578125-6.824219 41.601563 0 7.171875 3.757812 15.730468 3.757812 22.898437 0 13.023438-6.824219 28.578125-6.824219 41.601563 0l23.789062 12.464844zm0 0" fill="#fedbab"/><path d="m337.613281 175.375 25.292969-73.789062-23.785156-12.464844c-13.023438-6.824219-28.578125-6.824219-41.601563 0-3.585937 1.878906-7.515625 2.820312-11.449219 2.820312v83.433594zm0 0" fill="#fec478"/><path d="m306.226562 428h-40.3125c-50.015624 0-90.703124-40.6875-90.703124-90.703125v-42.023437c0-19.039063 10.144531-36.957032 26.472656-46.75l.144531-.089844c6.007813-3.605469 10.710937-8.875 13.605469-15.25l17.117187-37.652344h108.382813l17.296875 38.058594c2.804687 6.167968 7.328125 11.328125 13.074219 14.921875 16.046874 10.027343 25.625 27.3125 25.625 46.230469v42.554687c0 50.015625-40.691407 90.703125-90.703126 90.703125zm0 0" fill="#fedbab"/><path d="m371.304688 248.507812c-5.75-3.589843-10.269532-8.75-13.074219-14.921874l-17.296875-38.054688h-54.863282v232.46875h20.15625c50.011719 0 90.703126-40.6875 90.703126-90.703125v-42.554687c0-18.921876-9.582032-36.207032-25.625-46.234376zm0 0" fill="#fec478"/><path d="m307.253906 299.3125-21.324218-78.105469-14.378907 48.742188-19.332031-5.703125 20.269531-68.714844h27.324219l26.886719 98.472656zm0 0" fill="#664b34"/><path d="m307.253906 299.3125 19.445313-5.308594-26.886719-98.472656h-13.742188v26.195312zm0 0" fill="#59422d"/><path d="m341.164062 202.25h-108.84375v-40.3125h108.84375zm0 0" fill="#896648"/><path d="m341.164062 202.25h-55.09375v-40.3125h55.09375zm0 0" fill="#73543a"/><path d="m188.648438 428c-41.121094 0-74.578126-33.453125-74.578126-74.578125 0-41.121094 33.457032-74.578125 74.578126-74.578125 41.125 0 74.578124 33.457031 74.578124 74.578125 0 41.125-33.457031 74.578125-74.578124 74.578125zm0 0" fill="#fedb41"/><path d="m188.648438 278.84375v149.15625c41.121093 0 74.578124-33.453125 74.578124-74.578125 0-41.121094-33.457031-74.578125-74.578124-74.578125zm0 0" fill="#fcbf27"/><path d="m202.648438 343.429688c-1.089844-.691407-2.277344-1.332032-3.566407-1.925782-1.089843-.539062-2.3125-1.046875-3.675781-1.515625-1.359375-.46875-2.734375-.828125-4.121094-1.074219v6.664063c.445313.097656.914063.234375 1.410156.40625.496094.171875 1.015626.332031 1.5625.480469 2.421876.738281 4.613282 1.554687 6.570313 2.441406 1.957031.890625 3.625 1.9375 5.011719 3.148438 1.386718 1.210937 2.453125 2.675781 3.195312 4.402343.742188 1.730469 1.113282 3.824219 1.113282 6.292969 0 2.910156-.507813 5.390625-1.523438 7.4375-1.015625 2.050781-2.351562 3.726562-4.007812 5.035156-1.660157 1.308594-3.554688 2.292969-5.683594 2.960938-2.128906.664062-4.332032 1.074218-6.609375 1.21875v8.957031h-5.941407v-9.101563c-3.414062-.296874-6.808593-.964843-10.171874-2-3.367188-1.035156-6.386719-2.34375-9.0625-3.921874l6.238281-12.660157c1.339843.839844 2.773437 1.628907 4.308593 2.371094 1.289063.640625 2.785157 1.269531 4.492188 1.886719 1.710938.617187 3.457031 1.050781 5.238281 1.296875v-6.515625c-1.535156-.394532-3.070312-.863282-4.605469-1.40625-2.328124-.789063-4.332031-1.640625-6.015624-2.554688-1.683594-.910156-3.070313-1.949218-4.160157-3.109375-1.089843-1.160156-1.890625-2.480469-2.414062-3.960937-.519531-1.480469-.777344-3.179688-.777344-5.105469 0-2.664063.445313-5.019531 1.335937-7.070313.890626-2.046874 2.105469-3.8125 3.640626-5.289062 1.53125-1.484375 3.328124-2.667969 5.382812-3.554688 2.054688-.886718 4.246094-1.453124 6.570312-1.703124v-7.476563h5.941407v7.550781c1.636719.199219 3.21875.492188 4.753906.886719 1.535156.398437 3.007813.851563 4.417969 1.371094 1.410156.515625 2.734375 1.0625 3.972656 1.628906s2.378906 1.097656 3.417969 1.589844zm-18.195313-2.21875c0 .738281.246094 1.34375.742187 1.8125.496094.46875 1.238282.898437 2.230469 1.292968v-5.625c-1.984375.25-2.972656 1.085938-2.972656 2.519532zm10.101563 22.945312c0-.691406-.296876-1.296875-.894532-1.816406-.59375-.515625-1.386718-.972656-2.375-1.367188v5.476563c1.1875-.097657 2.027344-.34375 2.523438-.738281.496094-.394532.746094-.914063.746094-1.554688zm0 0" fill="#fe9922"/><path d="m205.839844 352.054688c-1.386719-1.210938-3.058594-2.257813-5.011719-3.148438-1.957031-.886719-4.148437-1.703125-6.570313-2.441406-.546874-.148438-1.066406-.308594-1.5625-.480469-.496093-.171875-.964843-.308594-1.410156-.410156v-6.660157c1.386719.246094 2.761719.605469 4.121094 1.074219 1.363281.46875 2.585938.972657 3.675781 1.515625 1.289063.59375 2.476563 1.234375 3.566407 1.925782l6.238281-11.917969c-1.039063-.492188-2.179688-1.023438-3.417969-1.589844-1.238281-.570313-2.5625-1.113281-3.972656-1.632813-1.410156-.515624-2.882813-.972656-4.417969-1.367187s-3.117187-.691406-4.753906-.886719v-7.550781h-3.675781v69.875h3.675781v-8.957031c2.277343-.148438 4.480469-.554688 6.609375-1.21875 2.128906-.667969 4.023437-1.65625 5.683594-2.960938 1.65625-1.308594 2.992187-2.988281 4.007812-5.035156s1.523438-4.527344 1.523438-7.4375c0-2.46875-.371094-4.566406-1.113282-6.292969-.742187-1.726562-1.808594-3.195312-3.195312-4.402343zm-12.03125 13.65625c-.496094.394531-1.335938.640624-2.523438.738281v-5.476563c.988282.394532 1.78125.851563 2.375 1.367188.597656.519531.894532 1.125.894532 1.816406 0 .640625-.25 1.160156-.746094 1.554688zm0 0" fill="#fe8722"/></svg>