<svg height="512pt" viewBox="0 0 512 512.03137" width="512pt" xmlns="http://www.w3.org/2000/svg"><path d="m132.429688 273.65625h-97.105469c-19.5 0-35.308594-15.808594-35.308594-35.3125v-35.308594c0-19.503906 15.808594-35.3125 35.308594-35.3125h441.382812c19.5 0 35.308594 15.808594 35.308594 35.3125v35.308594c0 19.503906-15.808594 35.3125-35.308594 35.3125zm0 0" fill="#b4b4b3"/><path d="m141.257812 238.34375h-97.105468c-4.875 0-8.828125-3.949219-8.828125-8.828125v-17.652344c0-4.875 3.953125-8.828125 8.828125-8.828125h423.726562c4.875 0 8.828125 3.953125 8.828125 8.828125v17.652344c0 4.878906-3.953125 8.828125-8.828125 8.828125zm0 0" fill="#445c71"/><path d="m344.292969 264.828125v17.65625c0 4.875-3.953125 8.824219-8.828125 8.824219h-26.484375v-35.308594h26.484375c4.875 0 8.828125 3.953125 8.828125 8.828125zm0 0" fill="#f4cd1e"/><path d="m273.671875 256h35.308594v35.308594h-35.308594zm0 0" fill="#f6ab27"/><path d="m238.359375 256h35.3125v35.308594h-35.3125zm0 0" fill="#f4cd1e"/><path d="m203.050781 256h35.308594v35.308594h-35.308594zm0 0" fill="#f6ab27"/><path d="m203.050781 256v35.308594h-26.484375c-4.875 0-8.828125-3.949219-8.828125-8.824219v-17.65625c0-4.875 3.953125-8.828125 8.828125-8.828125zm0 0" fill="#f4cd1e"/><path d="m282.144531 503.789062-25.335937 7.859376c-2.246094.683593-4.675782.445312-6.746094-.664063s-3.613281-3-4.285156-5.253906l-5.210938-16.859375c-1.382812-4.648438 1.207032-9.554688 5.828125-11.035156l25.335938-7.765626zm0 0" fill="#f4cd1e"/><path d="m315.867188 493.460938-33.722657 10.328124-10.414062-33.71875 33.71875-10.417968zm0 0" fill="#f6ab27"/><path d="m349.589844 483.046875-33.722656 10.414063-10.417969-33.808594 33.8125-10.328125zm0 0" fill="#f4cd1e"/><path d="m383.398438 472.628906-33.808594 10.417969-10.328125-33.722656 33.71875-10.417969zm0 0" fill="#f6ab27"/><path d="m408.644531 464.859375-25.246093 7.769531-10.417969-33.722656 25.335937-7.765625c4.65625-1.4375 9.59375 1.171875 11.035156 5.824219l5.207032 16.863281c.6875 2.246094.449218 4.675781-.664063 6.746094-1.109375 2.070312-3 3.613281-5.25 4.285156zm0 0" fill="#f4cd1e"/><path d="m341.464844 336.859375-9.265625 34.074219-25.511719-6.972656c-2.261719-.617188-4.183594-2.109376-5.34375-4.148438-1.15625-2.035156-1.460938-4.449219-.835938-6.710938l4.589844-17.035156c.617188-2.261718 2.109375-4.183594 4.148438-5.339844 2.035156-1.160156 4.449218-1.460937 6.707031-.839843zm0 0" fill="#f4cd1e"/><path d="m332.195312 370.929688 9.269532-34.074219 34.074218 9.269531-9.269531 34.074219zm0 0" fill="#f6ab27"/><path d="m409.617188 355.398438v.089843l-9.269532 33.984375-34.074218-9.269531 9.269531-34.074219zm0 0" fill="#f4cd1e"/><path d="m400.351562 389.460938 9.269532-33.988282 34.066406 9.289063-9.269531 33.988281zm0 0" fill="#f6ab27"/><path d="m475.46875 382.5-4.679688 17.035156c-.589843 2.277344-2.078124 4.21875-4.121093 5.382813-2.046875 1.164062-4.476563 1.453125-6.734375.796875l-25.511719-6.972656 9.269531-33.984376 25.597656 6.972657c4.664063 1.289062 7.421876 6.09375 6.179688 10.769531zm0 0" fill="#f4cd1e"/><path d="m211.878906 414.898438c0 53.625-43.476562 97.101562-97.105468 97.101562-53.628907 0-97.101563-43.476562-97.101563-97.101562 0-53.628907 43.472656-97.105469 97.101563-97.105469 53.628906 0 97.105468 43.476562 97.105468 97.105469zm0 0" fill="#5dc382"/><path d="m114.773438 317.792969v194.207031c-53.628907 0-97.101563-43.476562-97.101563-97.101562 0-53.628907 43.472656-97.105469 97.101563-97.105469zm0 0" fill="#23b972"/><path d="m114.773438 472.609375c-15.011719-.699219-29.398438-6.199219-41.046876-15.695313-3.707031-3.167968-4.140624-8.738281-.972656-12.445312 3.171875-3.703125 8.742188-4.140625 12.449219-.972656 8.441406 6.777344 18.769531 10.78125 29.570313 11.476562 15.890624 0 26.484374-7.757812 26.484374-12.894531 0-13.179687-7.609374-15.519531-27.746093-18.425781-17.074219-2.480469-42.875-6.203125-42.875-35.917969 0-20.71875 22.820312-34.632813 44.136719-34.632813 28.691406 0 39.644531 9.507813 41.550781 11.414063 3.457031 3.402344 3.523437 8.957031.148437 12.4375s-8.925781 3.589844-12.433594.242187c-.503906-.40625-8.308593-6.4375-29.265624-6.4375-11.996094 0-26.480469 7.566407-26.480469 16.976563 0 13.179687 7.609375 15.519531 27.742187 18.421875 17.074219 2.464844 42.878906 6.179688 42.878906 35.902344 0 17.136718-19.421874 30.550781-44.140624 30.550781zm0 0" fill="#5d9069"/><path d="m114.773438 494.34375c-4.875 0-8.828126-3.949219-8.828126-8.828125v-17.652344c0-4.875 3.953126-8.828125 8.828126-8.828125s8.828124 3.953125 8.828124 8.828125v17.652344c0 4.878906-3.953124 8.828125-8.828124 8.828125zm0 0" fill="#5d9069"/><path d="m114.773438 370.757812c-4.875 0-8.828126-3.953124-8.828126-8.828124v-17.652344c0-4.875 3.953126-8.828125 8.828126-8.828125s8.828124 3.953125 8.828124 8.828125v17.652344c0 4.875-3.953124 8.828124-8.828124 8.828124zm0 0" fill="#5d9069"/><path d="m256.015625 0 25.371094 38.78125 45.25 11.792969-29.574219 35.769531 2.597656 46.070312-43.644531-16.675781-43.644531 16.675781 2.597656-46.070312-29.574219-35.769531 45.25-11.792969zm0 0" fill="#f4cd1e"/><g fill="#f6db6d"><path d="m361.945312 35.308594c-4.097656.007812-7.664062-2.804688-8.605468-6.792969-.945313-3.992187.984375-8.105469 4.652344-9.933594l17.65625-8.828125c2.820312-1.410156 6.183593-1.207031 8.8125.535156 2.632812 1.738282 4.136718 4.75 3.949218 7.898438-.191406 3.148438-2.046875 5.957031-4.871094 7.367188l-17.65625 8.828124c-1.222656.609376-2.570312.925782-3.9375.925782zm0 0"/><path d="m158.914062 35.308594c-1.367187 0-2.714843-.316406-3.9375-.925782l-17.65625-8.828124c-2.824218-1.410157-4.679687-4.21875-4.871093-7.367188-.1875-3.148438 1.316406-6.160156 3.949219-7.898438 2.628906-1.742187 5.992187-1.945312 8.8125-.535156l17.65625 8.828125c3.667968 1.828125 5.597656 5.941407 4.652343 9.933594-.941406 3.988281-4.507812 6.800781-8.605469 6.792969zm0 0"/><path d="m379.601562 97.101562c-1.367187 0-2.714843-.316406-3.9375-.925781l-17.65625-8.828125c-4.363281-2.179687-6.132812-7.480468-3.953124-11.84375 2.179687-4.363281 7.484374-6.136718 11.847656-3.957031l17.65625 8.828125c3.667968 1.828125 5.59375 5.941406 4.652344 9.933594-.945313 3.988281-4.507813 6.804687-8.609376 6.792968zm0 0"/><path d="m141.257812 97.101562c-4.101562.011719-7.664062-2.804687-8.609374-6.792968-.941407-3.992188.984374-8.105469 4.652343-9.933594l17.65625-8.828125c2.824219-1.410156 6.183594-1.207031 8.816407.535156 2.632812 1.738281 4.136718 4.75 3.945312 7.898438-.191406 3.148437-2.046875 5.957031-4.871094 7.367187l-17.652344 8.828125c-1.222656.609375-2.570312.925781-3.9375.925781zm0 0"/></g></svg>