<?xml version="1.0"?>
<svg xmlns="http://www.w3.org/2000/svg" xmlns:xlink="http://www.w3.org/1999/xlink" xmlns:svgjs="http://svgjs.com/svgjs" version="1.1" width="512" height="512" x="0" y="0" viewBox="0 0 512.005 512.005" style="enable-background:new 0 0 512 512" xml:space="preserve" class=""><g>
<g xmlns="http://www.w3.org/2000/svg">
	<g>
		<g>
			<path d="M505.027,218.885l-42.667-38.784l-192-174.549c-8.128-7.403-20.587-7.403-28.715,0l-192,174.549L6.979,218.885     c-8.704,7.915-9.344,21.419-1.429,30.144c7.936,8.725,21.461,9.365,30.144,1.408l6.976-6.336v246.571     c0,11.776,9.536,21.333,21.333,21.333h106.667V341.339c0-47.061,38.272-85.333,85.333-85.333s85.333,38.272,85.333,85.333     v170.667h106.667c11.797,0,21.333-9.557,21.333-21.333V244.101l6.976,6.336c4.096,3.733,9.237,5.568,14.357,5.568     c5.803,0,11.584-2.368,15.787-6.976C514.371,240.304,513.731,226.8,505.027,218.885z" fill="#0c9869" data-original="#000000" style="" class=""/>
			<path d="M256.005,298.666c-23.531,0-42.667,19.136-42.667,42.667v170.667h85.333V341.332     C298.671,317.802,279.535,298.666,256.005,298.666z" fill="#0c9869" data-original="#000000" style="" class=""/>
		</g>
	</g>
</g>
<g xmlns="http://www.w3.org/2000/svg">
</g>
<g xmlns="http://www.w3.org/2000/svg">
</g>
<g xmlns="http://www.w3.org/2000/svg">
</g>
<g xmlns="http://www.w3.org/2000/svg">
</g>
<g xmlns="http://www.w3.org/2000/svg">
</g>
<g xmlns="http://www.w3.org/2000/svg">
</g>
<g xmlns="http://www.w3.org/2000/svg">
</g>
<g xmlns="http://www.w3.org/2000/svg">
</g>
<g xmlns="http://www.w3.org/2000/svg">
</g>
<g xmlns="http://www.w3.org/2000/svg">
</g>
<g xmlns="http://www.w3.org/2000/svg">
</g>
<g xmlns="http://www.w3.org/2000/svg">
</g>
<g xmlns="http://www.w3.org/2000/svg">
</g>
<g xmlns="http://www.w3.org/2000/svg">
</g>
<g xmlns="http://www.w3.org/2000/svg">
</g>
</g></svg>
