<svg id="Layer_1" enable-background="new 0 0 497 497" height="512" viewBox="0 0 497 497" width="512" xmlns="http://www.w3.org/2000/svg"><g><path d="m377 407-30 60 60-30v-22.5c0-4.142-3.358-7.5-7.5-7.5z" fill="#ff9441"/><path d="m377 452 30 45h22.5c4.142 0 7.5-3.358 7.5-7.5v-37.5z" fill="#ff9441"/><g fill="#ffb739"><path d="m377 452h-257l-30-15h-52.5c-4.142 0-7.5-3.358-7.5-7.5v-15c0-4.142 3.358-7.5 7.5-7.5h339.5z"/><path d="m407 452h-287l-30 15h-22.5c-4.142 0-7.5 3.358-7.5 7.5v15c0 4.142 3.358 7.5 7.5 7.5h339.5z"/><path d="m437 437-30 15 30 15h22.5c4.142 0 7.5-3.358 7.5-7.5v-15c0-4.142-3.358-7.5-7.5-7.5z"/></g><path d="m90 437h347v30h-347z" fill="#ffd17e"/><circle cx="248.5" cy="188.5" fill="#ffd17e" r="188.5"/><path d="m248.5 30v317c87.537 0 158.5-70.963 158.5-158.5s-70.963-158.5-158.5-158.5z" fill="#ff9441"/><path d="m377 188.5c0-87.537-57.531-158.5-128.5-158.5-87.537 0-158.5 70.963-158.5 158.5s70.963 158.5 158.5 158.5c70.969 0 128.5-70.963 128.5-158.5z" fill="#ffb739"/><path d="m248.5 90v197c54.4 0 98.5-44.1 98.5-98.5s-44.1-98.5-98.5-98.5z" fill="#ffeac3"/><path d="m317 188.5c0-54.4-30.669-98.5-68.5-98.5-54.4 0-98.5 44.1-98.5 98.5s44.1 98.5 98.5 98.5c37.831 0 68.5-44.1 68.5-98.5z" fill="#fff"/><path d="m248.5 121c-12.426 0-22.5 10.073-22.5 22.5v90c0 12.426 10.074 22.5 22.5 22.5s22.5-10.074 22.5-22.5v-90c0-12.427-10.074-22.5-22.5-22.5z" fill="#ffb739"/></g></svg>